<?xml version="1.0" encoding="UTF-8" standalone="no"?>
<svg
   xmlns:dc="http://purl.org/dc/elements/1.1/"
   xmlns:cc="http://creativecommons.org/ns#"
   xmlns:rdf="http://www.w3.org/1999/02/22-rdf-syntax-ns#"
   xmlns:svg="http://www.w3.org/2000/svg"
   xmlns="http://www.w3.org/2000/svg"
   xmlns:sodipodi="http://sodipodi.sourceforge.net/DTD/sodipodi-0.dtd"
   xmlns:inkscape="http://www.inkscape.org/namespaces/inkscape"
   width="1280"
   height="350"
   viewBox="0 0 338.66666 92.604169"
   version="1.1"
   id="svg8"
   inkscape:version="1.0 (6e3e5246a0, 2020-05-07)"
   sodipodi:docname="icon.svg"
   inkscape:export-filename="/home/ali/Downloads/github_wall.png"
   inkscape:export-xdpi="96"
   inkscape:export-ydpi="96">
  <defs
     id="defs2">
    <rect
       x="88.1642"
       y="63.556347"
       width="255.53333"
       height="55.255135"
       id="rect38" />
  </defs>
  <sodipodi:namedview
     id="base"
     pagecolor="#060032"
     bordercolor="#666666"
     borderopacity="1.0"
     inkscape:pageopacity="0"
     inkscape:pageshadow="2"
     inkscape:zoom="0.49497475"
     inkscape:cx="512.94219"
     inkscape:cy="288.27778"
     inkscape:document-units="mm"
     inkscape:current-layer="layer1"
     inkscape:document-rotation="0"
     showgrid="false"
     units="px"
     inkscape:window-width="1315"
     inkscape:window-height="713"
     inkscape:window-x="51"
     inkscape:window-y="27"
     inkscape:window-maximized="1" />
  <metadata
     id="metadata5">
    <rdf:RDF>
      <cc:Work
         rdf:about="">
        <dc:format>image/svg+xml</dc:format>
        <dc:type
           rdf:resource="http://purl.org/dc/dcmitype/StillImage" />
        <dc:title />
      </cc:Work>
    </rdf:RDF>
  </metadata>
  <g
     inkscape:label="Layer 1"
     inkscape:groupmode="layer"
     id="layer1">
    <g
       id="g386"
       style="fill:#ffffff"
       transform="matrix(0.12249898,0,0,0.122424,5.5391038,18.357945)">
      <g
         id="g374"
         style="fill:#ffffff">
        <path
           d="m 134.35,376.1 2.7,-19.8 c 0.7,-5 5,-8.6 9.8,-8.6 -9.1,-2.1 -36.3,1.3 -42.1,2.4 -19.7,4.8 -40.1,23.2 -51.7,39.6 5.4,25 25.9,43.7 50.5,43.7 4.3,0 8.6,-0.8 12.4,-1.9 -0.8,-3.1 0,-6.6 2.3,-9.3 10.2,-11.1 13.3,-27.5 16.1,-46.1 z"
           id="path366"
           style="fill:#ffffff" />
        <path
           d="m 42.15,114.3 c -0.1,0 -0.2,0.1 -0.3,0.1 0.2,0.1 0.4,0.1 0.3,-0.1 z"
           id="path368"
           style="fill:#ffffff" />
        <path
           d="m 177.05,0 c -26.4,0 -48.2,21.8 -51.3,49.8 12.9,2.1 24.9,53.3 25.7,72.7 0,5.4 -4.3,10.1 -9.7,10.1 h -0.4 c -5.4,0 -9.7,-4.3 -10.1,-9.7 0.2,-26.6 -16,-60.3 -17.2,-65.1 -3.3,-0.7 -6.8,-1.4 -10.4,-1.4 -24.6,0 -45.1,18.8 -50.5,44.2 5,5.8 17.7,19.1 41.2,27 20,6.8 41.6,8.9 63,7.8 5.4,0 10.1,3.9 10.5,9.3 0.4,5.4 -3.9,10.1 -9.3,10.5 -19.2,1.7 -50.2,-2.7 -69.6,-8.6 -6.2,-1.9 -28,-6.1 -48.5,-31.8 -23.2,6.9 -40.2,29.4 -40.2,56.7 0,9.4 2,18.4 5.8,26.5 54.9,-6.4 85.4,-4.4 96.9,-1.3 29.9,8.2 55.2,25.7 64.9,37.3 3.5,4.3 3.1,10.5 -1.2,14 -1.9,1.6 -8.6,5 -14,-1.2 -13.5,-15.6 -44.7,-28.4 -54.4,-30.7 -17.9,-4.2 -67.6,-0.5 -92.4,2.1 -3.5,7.9 -5.6,16.9 -5.6,26.3 0,9.1 1.9,17.6 5.4,25.1 48.6,8.8 69.6,-10.4 80.1,-17 5.8,-3.9 12.1,-7.8 18.3,-11.3 4.7,-2.7 10.9,-0.8 13.6,3.9 2.7,4.7 0.8,10.9 -3.9,13.6 -5.8,3.1 -11.3,6.6 -16.7,10.5 -11.3,7.4 -37.5,28.7 -90.2,21.2 -4.2,8.3 -6.7,17.9 -6.7,27.8 0,26.9 17.1,49.6 40,55.8 18.3,-23.5 45.5,-53.3 110.5,-46.4 11.7,1.2 21.8,6.2 29.2,12.8 4.3,3.5 4.7,10.1 0.8,14 -3.5,4.3 -10.1,4.7 -14,0.8 -5,-4.3 -11.3,-6.3 -16.5,-7.3 4.5,1.5 7.4,6 6.8,10.8 l -2.7,19.8 c -2.3,17.1 -5.8,40.8 -21,56.8 -1.9,1.9 -4.7,3.1 -7.4,3.1 -0.4,0 -0.4,0 -0.8,0 2.7,28.8 24.9,51.3 51.7,51.3 28.8,0 51.7,-25.7 51.7,-57.2 0,-31.5 0,-344.2 0,-375.7 C 229.25,25.7 205.85,0 177.05,0 Z m -72.3,307.6 c -16.7,15.6 -42.6,25.6 -67.7,24.5 -5.4,-0.4 -9.7,-5.1 -9.3,-10.5 0.4,-5.4 5.1,-9.7 10.5,-9.3 19.1,1.2 38.9,-5.8 52.9,-19.1 3.9,-3.9 10.5,-3.5 14,0.4 3.9,3.9 3.5,10.1 -0.4,14 z M 163.05,35 c -2.7,-4.7 -1.2,-10.9 3.5,-13.6 4.7,-2.7 10.9,-1.2 13.6,3.5 14.8,24.5 22.9,52.5 22.9,81.3 0,5.4 -4.3,10.1 -9.7,10.1 -5.4,0 -9.7,-4.3 -10.1,-9.7 -0.3,-25.7 -7.3,-50.2 -20.2,-71.6 z m -0.3,171.1 c -11.3,-15.2 -28,-26.1 -46.7,-29.6 -5.4,-1.2 -8.9,-6.2 -7.8,-11.7 1.2,-5.4 6.2,-8.9 11.7,-7.8 23.3,4.7 44.7,18.3 59.1,37.3 14.4,19.1 20.6,43.9 17.9,67.7 -0.8,5.1 -5.1,8.8 -9.7,8.9 -6,0.2 -10.5,-5.4 -9.7,-10.9 1.5,-19.3 -3.6,-38.7 -14.8,-53.9 z m 43.5,182.4 c -0.8,0 -1.6,0.4 -2.3,0.4 -4.7,0 -8.6,-3.1 -9.7,-7.8 -1.9,-8.6 -9.7,-44.3 -16.7,-53.3 -12.8,-16.4 -47.8,-28.4 -47.8,-28.4 -5.1,-2.3 -7.4,-8.2 -5.4,-13.2 2.3,-5.1 8.2,-7.4 13.2,-5.4 27.6,10.2 44.3,20 56.4,35 10.1,12.6 18.3,51.7 20.6,60.3 0.7,5.8 -2.8,11.2 -8.3,12.4 z"
           id="path370"
           style="fill:#ffffff" />
        <path
           d="m 114.85,57.9 c -0.1,0 -0.1,0 -0.2,0 0.1,0.3 0.2,0.3 0.2,0 z"
           id="path372"
           style="fill:#ffffff" />
      </g>
      <g
         id="g384"
         style="fill:#ffffff">
        <path
           d="m 355.75,376.1 -2.7,-19.8 c -0.7,-5 -5,-8.6 -9.8,-8.6 9.1,-2.1 36.3,1.3 42.1,2.4 19.7,4.8 40.1,23.2 51.7,39.6 -5.4,25 -25.9,43.7 -50.5,43.7 -4.3,0 -8.6,-0.8 -12.4,-1.9 0.8,-3.1 0,-6.6 -2.3,-9.3 -10.2,-11.1 -13.3,-27.5 -16.1,-46.1 z"
           id="path376"
           style="fill:#ffffff" />
        <path
           d="m 447.95,114.3 c 0.1,0 0.2,0.1 0.3,0.1 -0.2,0.1 -0.3,0.1 -0.3,-0.1 z"
           id="path378"
           style="fill:#ffffff" />
        <path
           d="m 261.65,57.2 c 0,31.5 0,344.2 0,375.7 0,31.5 22.9,57.2 51.7,57.2 26.8,0 49,-22.6 51.7,-51.3 -0.4,0 -0.4,0 -0.8,0 -2.7,0 -5.4,-1.2 -7.4,-3.1 -15.2,-15.9 -18.7,-39.7 -21,-56.8 l -2.7,-19.8 c -0.7,-4.8 2.3,-9.3 6.8,-10.8 -5.1,1 -11.5,3 -16.5,7.3 -3.9,3.9 -10.5,3.5 -14,-0.8 -3.9,-3.9 -3.5,-10.5 0.8,-14 7.4,-6.6 17.5,-11.6 29.2,-12.8 65.1,-6.8 92.3,22.9 110.5,46.4 22.9,-6.2 40,-28.9 40,-55.8 0,-10 -2.4,-19.6 -6.7,-27.8 -52.7,7.5 -78.9,-13.8 -90.2,-21.2 -5.4,-3.9 -10.9,-7.4 -16.7,-10.5 -4.7,-2.7 -6.6,-8.9 -3.9,-13.6 2.7,-4.7 8.9,-6.6 13.6,-3.9 6.2,3.5 12.4,7.4 18.3,11.3 10.5,6.6 31.6,25.7 80.1,17 3.5,-7.6 5.4,-16 5.4,-25.1 0,-9.3 -2.2,-18.4 -5.6,-26.3 -24.7,-2.6 -74.5,-6.3 -92.4,-2.1 -9.7,2.3 -40.9,15.1 -54.4,30.7 -5.4,6.2 -12.1,2.7 -14,1.2 -4.3,-3.5 -4.7,-9.7 -1.2,-14 9.7,-11.7 35.1,-29.1 64.9,-37.3 11.5,-3.2 42,-5.2 96.9,1.3 3.7,-8.1 5.8,-17.1 5.8,-26.5 0,-27.3 -17,-49.8 -40.2,-56.7 -20.4,25.7 -42.2,29.8 -48.5,31.8 -19.4,5.8 -50.5,10.3 -69.6,8.6 -5.4,-0.4 -9.7,-5.1 -9.3,-10.5 0.4,-5.4 5.1,-9.3 10.5,-9.3 21.4,1.2 43,-1 63,-7.8 23.5,-7.9 36.2,-21.2 41.2,-27 -5.4,-25.4 -25.9,-44.2 -50.5,-44.2 -3.6,0 -7.1,0.7 -10.4,1.4 -1.2,4.9 -17.4,38.5 -17.2,65.1 -0.4,5.4 -4.7,9.7 -10.1,9.7 h -0.4 c -5.4,0 -9.7,-4.7 -9.7,-10.1 0.8,-19.4 12.8,-70.7 25.7,-72.7 C 361.25,21.8 339.45,0 313.05,0 c -28.8,0 -52.1,25.7 -51.4,57.2 z m 123.3,236.4 c 3.5,-3.9 10.1,-4.3 14,-0.4 14,13.2 33.8,20.2 52.9,19.1 5.4,-0.4 10.1,3.9 10.5,9.3 0.4,5.4 -3.9,10.1 -9.3,10.5 -25.1,1.1 -50.9,-8.9 -67.7,-24.5 -3.9,-3.9 -4.3,-10.1 -0.4,-14 z m -78.2,-187 c -0.4,5.4 -4.7,9.7 -10.1,9.7 -5.4,0 -9.7,-4.7 -9.7,-10.1 0,-28.8 8.2,-56.8 22.9,-81.3 2.7,-4.7 8.9,-6.2 13.6,-3.5 4.7,2.7 6.2,8.9 3.5,13.6 -12.8,21.4 -19.8,45.9 -20.2,71.6 z m 5.9,153.6 c 0.8,5.4 -3.7,11.1 -9.7,10.9 -4.7,-0.2 -8.9,-3.9 -9.7,-8.9 -2.7,-23.7 3.5,-48.6 17.9,-67.7 14.4,-19.1 35.8,-32.7 59.1,-37.3 5.4,-1.2 10.5,2.3 11.7,7.8 1.2,5.4 -2.3,10.5 -7.8,11.7 -18.7,3.5 -35.4,14.4 -46.7,29.6 -11.3,15 -16.4,34.4 -14.8,53.9 z m -37,115.9 c 2.3,-8.6 10.5,-47.7 20.6,-60.3 12.1,-15 28.8,-24.8 56.4,-35 5.1,-1.9 10.9,0.4 13.2,5.4 1.9,5.1 -0.4,10.9 -5.4,13.2 0,0 -35,12 -47.8,28.4 -7,9 -14.8,44.7 -16.7,53.3 -1.2,4.7 -5.1,7.8 -9.7,7.8 -0.8,0 -1.6,-0.4 -2.3,-0.4 -5.5,-1.2 -9,-6.6 -8.3,-12.4 z"
           id="path380"
           style="fill:#ffffff" />
        <path
           d="m 375.25,57.9 c 0.1,0 0.1,0 0.2,0 -0.1,0.3 -0.2,0.3 -0.2,0 z"
           id="path382"
           style="fill:#ffffff" />
      </g>
    </g>
    <text
       xml:space="preserve"
       id="text36"
       style="font-style:normal;font-weight:normal;font-size:38.8056px;line-height:1.25;font-family:sans-serif;white-space:pre;shape-inside:url(#rect38);fill:#000000;fill-opacity:1;stroke:none;"
       transform="matrix(1.1194746,0,0,1.3176994,-26.947415,-63.5148)"><tspan
         x="88.164062"
         y="99.645586"><tspan
           style="font-style:normal;font-variant:normal;font-weight:500;font-stretch:normal;font-size:38.8056px;font-family:Oswald;-inkscape-font-specification:'Oswald Medium';fill:#0000ff">SMART</tspan><tspan
           style="font-style:normal;font-variant:normal;font-weight:500;font-stretch:normal;font-size:38.8056px;font-family:Oswald;-inkscape-font-specification:'Oswald Medium';fill:#ff0000">ADVISOR</tspan></tspan></text>
  </g>
</svg>
