<svg xmlns="http://www.w3.org/2000/svg" height="1274" viewBox="-8.529 0 98.31 44.711" width="2500" xmlns:v="https://vecta.io/nano"><linearGradient id="A" gradientUnits="userSpaceOnUse" x2="44.859" x1="44.859" y1=".024" y2="44.407"><stop offset="0" stop-color="#00b8f1"/><stop offset=".22" stop-color="#06a5e5"/><stop offset=".794" stop-color="#1870c5"/><stop offset="1" stop-color="#1d61bc"/></linearGradient><path d="M0 0v44.415h45.37l44.4-44.4H0z" fill="url(#A)"/><path d="M57.47 39.875v3.313h.5V41.75h.562l.906 1.438H60l-.97-1.438c.484-.06.875-.342.875-.938 0-.652-.4-.937-1.187-.937zm.5.438h.687c.338 0 .72.054.72.468 0 .517-.386.563-.813.563h-.593zm.625-1.657c-1.586 0-2.938 1.222-2.938 2.875 0 1.665 1.352 2.906 2.938 2.906a2.868 2.868 0 0 0 2.875-2.906c0-1.653-1.31-2.875-2.875-2.875zm0 .47c1.294 0 2.312 1.045 2.312 2.406 0 1.384-1.018 2.406-2.312 2.406-1.316 0-2.375-1.022-2.375-2.406 0-1.36 1.06-2.406 2.375-2.406z" fill="#1870c5"/><path d="M53.797 21.252H51.85v-7.117h1.946c2.598 0 4.666.856 4.666 3.513 0 2.744-2.068 3.604-4.666 3.604M32.852 26.34a8.083 8.083 0 0 1-2.831-.502l2.803-8.84h.06l2.745 8.864a8.251 8.251 0 0 1-2.774.478M53.28 8.353h-8.837v21.013l-7.72-21.013h-7.652L22.476 25.92c-.697-4.428-5.284-5.96-8.9-7.104-2.377-.765-4.907-1.89-4.884-3.134.02-1.018 1.36-1.962 4-1.82 1.78.1 3.35.234 6.467 1.74l3.07-5.348C19.395 8.802 15.454 7.9 12.23 7.883h-.02c-3.76 0-6.895 1.226-8.84 3.233-1.35 1.404-2.082 3.18-2.115 5.157-.05 2.708.947 4.63 3.034 6.167 1.766 1.294 4.02 2.127 6.01 2.75 2.455.757 4.46 1.418 4.436 2.827a2.05 2.05 0 0 1-.582 1.374c-.61.635-1.55.87-2.85.9-2.504.05-4.36-.34-7.32-2.088l-2.73 5.423a20.39 20.39 0 0 0 10.003 2.661h.46c3.1-.06 5.604-.945 7.605-2.553l.324-.283-.884 2.376H26.8l1.348-4.1c1.4.477 3.016.745 4.716.745 1.66 0 3.224-.25 4.61-.706l1.296 4.06h13.094v-8.5H54.7c6.9 0 10.986-3.512 10.986-9.406 0-6.56-3.968-9.57-12.416-9.57" fill="#fff" fill-rule="evenodd"/></svg>